<svg xmlns="http://www.w3.org/2000/svg" viewBox="0 0 154.5871 56.6487"><title>Монтажная область 1</title><path d="M25.91211,36.235c1.29938-.7504,2.23792-.7328,3.98151-1.9089,9.48761-6.40121,8.28589-20.7434-1.643-26.1898A15.80774,15.80774,0,0,0,7.18842,14.1695H.28967C2.6991,5.2682,12.1507,0,20.973,0A21.96357,21.96357,0,0,1,42.97949,22.0549a21.63581,21.63581,0,0,1-9.30927,17.4133q-.33051.2295-.6698.4467l9.68909,16.7338H32.758L24.34021,42.1061a4.306,4.306,0,0,1,1.5719-5.8711M9.01727,48.9583a1.21327,1.21327,0,0,1-.10425.4912,1.31638,1.31638,0,0,1-2.47162-.1624,1.21913,1.21913,0,0,1-.04559-.3288c.0094-4.3614-.00543-8.2083-.0224-12.1785H0c.02148,4.2296.02979,8.2641.02979,12.1785a7.679,7.679,0,0,0,15.2948.9439l-.07019-13.0839-6.19287-.0901C9.06409,41.2931,9.01727,44.496,9.01727,48.9583Z" style="fill:#ea0e15;fill-rule:evenodd"/><path d="M14.68567,22.0768A6.06508,6.06508,0,0,1,20.70819,15.83q.054-.00076.108-.0008a6.1713,6.1713,0,1,1,0,12.3426h-.21545l-5.85236.0011c0-2.0335-.02722-4.0646-.06274-6.0961M8.87018,34.5376h11.946A12.1982,12.1982,0,0,0,31.837,28.1797l.00464-.0079A12.6366,12.6366,0,0,0,20.81622,9.3679l-.108.0003c-7.22131.0598-12.33746,6.1115-12.037,13.1715C8.84717,26.6805,8.87018,30.3006,8.87018,34.5376Z" style="fill:#575756;fill-rule:evenodd"/><rect x="0.26422" y="31.1575" width="6.24805" height="3.4419" style="fill:#575756"/><rect x="0.26422" y="16.9004" width="6.24805" height="3.4418" style="fill:#c4c5c5"/><rect x="0.26422" y="23.9604" width="6.24805" height="3.4418" style="fill:#9c9d9d"/><path d="M58.21741,26.9056h2.88391L67.16809,35.757h4.87329l-6.6637-9.3818a6.75112,6.75112,0,0,0,4.47559-6.4644c0-4.1437-2.9837-6.5639-7.16058-6.5639h-8.553V35.757h4.0777Zm0-3.6797V17.0268H62.295c2.12152,0,3.38123.9613,3.38123,2.9835a2.8682,2.8682,0,0,1-3.14929,3.2156ZM89.8432,26.162V22.5629H79.43378V17.0268H90.17493V13.3469H75.35651V26.162ZM104.529,35.757a6.46,6.46,0,0,0,6.82922-6.6302,5.4361,5.4361,0,0,0-3.9118-5.1384,5.43022,5.43022,0,0,0,2.85107-4.9064c0-3.6134-2.85107-5.7351-6.7298-5.7351h-8.6853V35.757Zm-5.56927-3.6133V26.1765h5.43689a2.57066,2.57066,0,0,1,2.78467,2.8176c0,1.95589-.8288,3.1496-2.78467,3.1496Zm0-9.5476V16.9605h4.64117a2.34938,2.34938,0,0,1,2.55261,2.6521c0,1.8896-.99469,2.9835-2.41992,2.9835Zm31.42688,4.3758c0,3.6136-2.32037,5.3705-5.50287,5.3705s-5.63562-1.8232-5.63562-5.3705V13.3469h-4.07764V27.4362c0,5.7019,4.67432,8.619,9.71326,8.619s9.58044-2.9171,9.58044-8.619V13.3469H130.3866Zm15.9129-5.1384c-1.19373-.62981-2.68561-1.55791-2.68561-3.0166,0-1.326.96149-2.1217,2.51971-2.1217a7.89734,7.89734,0,0,1,6.03326,2.9174l2.42023-2.78481a10.79376,10.79376,0,0,0-8.48657-3.7791c-4.04456,0-6.5639,2.3536-6.5639,5.8345,0,2.9503,1.92267,4.9394,4.84009,6.4976l2.685,1.4256c2.42017,1.2928,3.38141,1.92271,3.38141,3.2816,0,1.3261-1.06073,2.3208-3.0166,2.3208-2.35394,0-4.4093-1.1271-6.46442-3.0167l-2.6853,2.7516a12.45534,12.45534,0,0,0,8.95068,3.9115c4.21033,0,7.26013-2.6189,7.26013-6.5639,0-3.348-2.71838-4.77351-5.3042-6.13271Z" style="fill:#ea0e15;fill-rule:evenodd"/><rect x="75.35651" y="32.1352" width="15.21606" height="3.6218" style="fill:#575756"/><path d="M135.1488,42.5616a.64447.64447,0,0,0-.06659-.309.4574.4574,0,0,0-.16364-.17941.55.55,0,0,0-.20258-.0731,1.56074,1.56074,0,0,0-.22089-.0151h-.30981v1.2113h.32678a.80132.80132,0,0,0,.292-.0468.50031.50031,0,0,0,.1925-.1315.574.574,0,0,0,.11371-.201.82666.82666,0,0,0,.03851-.2554m.75488-.0524a1.39487,1.39487,0,0,1-.09387.5315,1.003,1.003,0,0,1-.27319.3894,1.19648,1.19648,0,0,1-.43945.2413,2.02872,2.02872,0,0,1-.61426.0827h-.29761v1.1353a.07617.07617,0,0,1-.01782.0499.13719.13719,0,0,1-.05927.0354.56656.56656,0,0,1-.10974.0219,1.47931,1.47931,0,0,1-.17487.0085,1.5065,1.5065,0,0,1-.17432-.0085.64379.64379,0,0,1-.11108-.0219.12041.12041,0,0,1-.05731-.0354.08274.08274,0,0,1-.01672-.0499V41.6866a.25735.25735,0,0,1,.06744-.1945.24635.24635,0,0,1,.17749-.06461h.8396c.08447,0,.16528.0025.24121.0093a2.69815,2.69815,0,0,1,.27435.0411,1.21814,1.21814,0,0,1,.32294.1174.95691.95691,0,0,1,.27979.216.90562.90562,0,0,1,.17664.3061A1.19774,1.19774,0,0,1,135.90369,42.5092Zm-5.084.6939a2.75961,2.75961,0,0,0-.04388-.51,1.09335,1.09335,0,0,0-.14941-.3934.71913.71913,0,0,0-.2818-.2534.96908.96908,0,0,0-.43933-.0893.8968.8968,0,0,0-.44415.1003.81563.81563,0,0,0-.28912.2687,1.09667,1.09667,0,0,0-.15509.3915,2.41616,2.41616,0,0,0-.0451.4751,2.83913,2.83913,0,0,0,.04431.5241,1.13477,1.13477,0,0,0,.14819.398.68416.68416,0,0,0,.27979.2517,1.00579,1.00579,0,0,0,.4422.08649.8979.8979,0,0,0,.44452-.09949.8.8,0,0,0,.28906-.2696,1.13742,1.13742,0,0,0,.15485-.3974A2.48368,2.48368,0,0,0,130.8197,43.2031Zm.76062-.0369a2.62961,2.62961,0,0,1-.10974.7918,1.58227,1.58227,0,0,1-.3277.5924,1.41123,1.41123,0,0,1-.53717.3719,1.99352,1.99352,0,0,1-.74182.12759,2.18433,2.18433,0,0,1-.724-.10889,1.2498,1.2498,0,0,1-.51642-.33141,1.41815,1.41815,0,0,1-.309-.5663,2.85311,2.85311,0,0,1-.10321-.81409,2.56148,2.56148,0,0,1,.10968-.77641,1.57856,1.57856,0,0,1,.3277-.5868,1.42086,1.42086,0,0,1,.53711-.37109,1.97978,1.97978,0,0,1,.74469-.1295,2.18666,2.18666,0,0,1,.71381.1069,1.24684,1.24684,0,0,1,.51642.3308,1.42194,1.42194,0,0,1,.3136.5615A2.71185,2.71185,0,0,1,131.58032,43.1662Zm-4.90063,1.5194a1.13018,1.13018,0,0,1-.00677.1392.44792.44792,0,0,1-.02039.0927.11349.11349,0,0,1-.03485.0536.07414.07414,0,0,1-.04785.017h-1.6311a.2236.2236,0,0,1-.15192-.0536.21916.21916,0,0,1-.06213-.1746V41.5258a.07806.07806,0,0,1,.01782-.04961.13359.13359,0,0,1,.05933-.0357.57565.57565,0,0,1,.11139-.0215,1.81821,1.81821,0,0,1,.3512,0,.58152.58152,0,0,1,.11.0215.13488.13488,0,0,1,.0592.0357.07744.07744,0,0,1,.01788.04961v2.865h1.11835a.0755.0755,0,0,1,.04785.015.11228.11228,0,0,1,.03485.0499.34679.34679,0,0,1,.02039.091A1.11227,1.11227,0,0,1,126.67969,44.6856Zm-3.86981.0179a1.12189,1.12189,0,0,1-.00647.1343.34885.34885,0,0,1-.02069.0865.10978.10978,0,0,1-.03491.0487.07311.07311,0,0,1-.0451.0151h-1.78583a.22489.22489,0,0,1-.15216-.0536.21908.21908,0,0,1-.06183-.1746V41.6557a.21979.21979,0,0,1,.06183-.1749.22418.22418,0,0,1,.15216-.0533h1.77734a.07555.07555,0,0,1,.04449.0139.11956.11956,0,0,1,.03259.0479.41263.41263,0,0,1,.02069.0881,1.09325,1.09325,0,0,1,.00653.1372,1.032,1.032,0,0,1-.00653.1315.32734.32734,0,0,1-.02069.0865.12827.12827,0,0,1-.03259.0488.07143.07143,0,0,1-.04449.015h-1.27051v.8677h1.07068a.07106.07106,0,0,1,.0451.015.10943.10943,0,0,1,.03479.047.29947.29947,0,0,1,.02045.0854,1.2688,1.2688,0,0,1,0,.2619.3021.3021,0,0,1-.02045.0836.09468.09468,0,0,1-.03479.0451.07608.07608,0,0,1-.0451.0142h-1.07068v1.0026h1.279a.0694.0694,0,0,1,.0451.0153.10863.10863,0,0,1,.03491.04871.34375.34375,0,0,1,.02069.0862A1.12714,1.12714,0,0,1,122.80988,44.7035Zm-4.93939.1587a.22178.22178,0,0,1-.0354.0751.13872.13872,0,0,1-.07147.0442.56739.56739,0,0,1-.13519.0196c-.0564.0028-.13043.004-.22253.004-.07336,0-.13611,0-.18878-.0012-.05243-.0008-.09662-.0036-.13318-.0073a.51405.51405,0,0,1-.08936-.0162.20084.20084,0,0,1-.058-.0281.11614.11614,0,0,1-.03571-.0394.34322.34322,0,0,1-.02362-.0592l-1.05811-3.1569a.80931.80931,0,0,1-.03937-.1568.091.091,0,0,1,.02716-.0873.2159.2159,0,0,1,.11621-.0357c.0556-.0046.13239-.0065.23218-.0065.08423,0,.1499.0019.19782.0056a.47682.47682,0,0,1,.11.0187.09528.09528,0,0,1,.05365.0414.43157.43157,0,0,1,.02917.0695l.86481,2.7465h.00256l.851-2.7335a.29152.29152,0,0,1,.02728-.0748.1079.1079,0,0,1,.05719-.0462.41262.41262,0,0,1,.1145-.0216c.04883-.0037.11743-.0056.2038-.0056a1.737,1.737,0,0,1,.19708.0085.14611.14611,0,0,1,.09662.0394.11053.11053,0,0,1,.01617.0901.98517.98517,0,0,1-.0423.1539Zm-3.68726-.1587a1.05313,1.05313,0,0,1-.00684.1343.33443.33443,0,0,1-.02039.0865.11217.11217,0,0,1-.03491.0487.073.073,0,0,1-.045.0151h-1.78589a.22385.22385,0,0,1-.15222-.0536.21914.21914,0,0,1-.06207-.1746V41.6557a.21985.21985,0,0,1,.06207-.1749.22315.22315,0,0,1,.15222-.0533h1.77728a.0746.0746,0,0,1,.04431.0139.1197.1197,0,0,1,.03278.0479.42016.42016,0,0,1,.02069.0881,1.12779,1.12779,0,0,1,.00659.1372,1.06569,1.06569,0,0,1-.00659.1315.33722.33722,0,0,1-.02069.0865.12841.12841,0,0,1-.03278.0488.07055.07055,0,0,1-.04431.015h-1.27039v.8677h1.07056a.072.072,0,0,1,.0451.015.10776.10776,0,0,1,.03461.047.31355.31355,0,0,1,.02069.0854,1.316,1.316,0,0,1,0,.2619.31718.31718,0,0,1-.02069.0836.09336.09336,0,0,1-.03461.0451.07716.07716,0,0,1-.0451.0142h-1.07056v1.0026h1.279a.06919.06919,0,0,1,.045.0153.111.111,0,0,1,.03491.04871.32968.32968,0,0,1,.02039.0862A1.058,1.058,0,0,1,114.18323,44.7035Zm-4.72345-1.5231a1.77773,1.77773,0,0,0-.0592-.4705.99251.99251,0,0,0-.18939-.3756.88235.88235,0,0,0-.33527-.2486,1.36758,1.36758,0,0,0-.538-.0893h-.36542v2.4168h.3764a1.41415,1.41415,0,0,0,.50061-.0768.84033.84033,0,0,0,.3399-.2319,1.00836,1.00836,0,0,0,.203-.3861A1.92568,1.92568,0,0,0,109.45978,43.1804Zm.74951-.0252a2.44261,2.44261,0,0,1-.12781.8385,1.42839,1.42839,0,0,1-.36707.568,1.47078,1.47078,0,0,1-.58234.3229,2.85217,2.85217,0,0,1-.816.1035h-.84961a.22465.22465,0,0,1-.15308-.0536.21933.21933,0,0,1-.062-.1746V41.6557a.22.22,0,0,1,.062-.1749.224.224,0,0,1,.15308-.0533h.91278a2.55021,2.55021,0,0,1,.80731.1117,1.46049,1.46049,0,0,1,.55872.3293,1.42762,1.42762,0,0,1,.34552.5409A2.152,2.152,0,0,1,110.20929,43.1552Zm-8.149.0479a2.75381,2.75381,0,0,0-.044-.51,1.09222,1.09222,0,0,0-.14941-.3934.71837.71837,0,0,0-.28168-.2534.96953.96953,0,0,0-.43939-.0893.89656.89656,0,0,0-.44421.1003.81563.81563,0,0,0-.28912.2687,1.10117,1.10117,0,0,0-.15509.3915,2.421,2.421,0,0,0-.045.4751,2.84507,2.84507,0,0,0,.04419.5241,1.136,1.136,0,0,0,.14819.398.68492.68492,0,0,0,.27979.2517,1.0056,1.0056,0,0,0,.4422.08649.89742.89742,0,0,0,.44452-.09949.79638.79638,0,0,0,.28882-.2696,1.12832,1.12832,0,0,0,.15509-.3974A2.47874,2.47874,0,0,0,102.0603,43.2031Zm.7605-.0369a2.6316,2.6316,0,0,1-.10968.7918,1.58142,1.58142,0,0,1-.3277.5924,1.41147,1.41147,0,0,1-.53711.3719,1.99486,1.99486,0,0,1-.74194.12759,2.18409,2.18409,0,0,1-.72388-.10889,1.24923,1.24923,0,0,1-.51648-.33141,1.41823,1.41823,0,0,1-.309-.5663,2.85312,2.85312,0,0,1-.10321-.81409,2.55952,2.55952,0,0,1,.10974-.77641,1.57686,1.57686,0,0,1,.3277-.5868,1.42061,1.42061,0,0,1,.53717-.37109,1.97945,1.97945,0,0,1,.74463-.1295,2.1864,2.1864,0,0,1,.71381.1069,1.24823,1.24823,0,0,1,.51648.3308,1.42176,1.42176,0,0,1,.31348.5615A2.70782,2.70782,0,0,1,102.8208,43.1662ZM97.924,41.724a1.11847,1.11847,0,0,1-.00659.1372.34559.34559,0,0,1-.02075.0901.11287.11287,0,0,1-.03448.0507.069.069,0,0,1-.04541.0168H96.9267v2.8706a.07735.07735,0,0,1-.01782.0499.13534.13534,0,0,1-.05927.0354.64454.64454,0,0,1-.11139.0219,1.80125,1.80125,0,0,1-.34955,0,.65017.65017,0,0,1-.11169-.0219.13693.13693,0,0,1-.0592-.0354.07776.07776,0,0,1-.01788-.0499V42.0188h-.89008a.06951.06951,0,0,1-.047-.0168.13042.13042,0,0,1-.0329-.0507.42143.42143,0,0,1-.02075-.0901,1.21363,1.21363,0,0,1-.00647-.1372,1.25115,1.25115,0,0,1,.00647-.1398.43176.43176,0,0,1,.02075-.09209.1238.1238,0,0,1,.0329-.04961.07286.07286,0,0,1,.047-.015h2.507a.07375.07375,0,0,1,.04541.015.10775.10775,0,0,1,.03448.04961.355.355,0,0,1,.02075.09209A1.15348,1.15348,0,0,1,97.924,41.724Zm-8.31891.3804h-.00281l-.49579,1.5145h.99921ZM91.239,44.7185a1.01962,1.01962,0,0,1,.04138.1567.09909.09909,0,0,1-.02148.0876.18678.18678,0,0,1-.108.0355c-.05078.0048-.12219.0068-.21149.0068-.09381,0-.1673-.0012-.21881-.004a.53458.53458,0,0,1-.12018-.017.10862.10862,0,0,1-.05731-.0346.17312.17312,0,0,1-.02722-.0572l-.23389-.7155H88.93927l-.22424.6959a.212.212,0,0,1-.02924.0646.11513.11513,0,0,1-.05719.0414.40557.40557,0,0,1-.11279.0204q-.07324.006-.19141.006a1.79026,1.79026,0,0,1-.19812-.0085.14989.14989,0,0,1-.09869-.0397.10708.10708,0,0,1-.01978-.0899.96876.96876,0,0,1,.04138-.1542l1.09668-3.1598a.24536.24536,0,0,1,.03864-.0751.13223.13223,0,0,1,.0694-.0439.54788.54788,0,0,1,.1344-.0199c.05609-.0028.13147-.0036.22528-.0036.108,0,.19452.0008.2583.0036a.66275.66275,0,0,1,.15021.0199.1478.1478,0,0,1,.07709.0451.276.276,0,0,1,.03912.0824Zm-4.8302-.015a1.05313,1.05313,0,0,1-.00684.1343.337.337,0,0,1-.02039.0865.11467.11467,0,0,1-.03491.0487.07311.07311,0,0,1-.0451.0151H84.5155a.22371.22371,0,0,1-.15192-.0536.21914.21914,0,0,1-.06207-.1746V41.6557a.21985.21985,0,0,1,.06207-.1749.223.223,0,0,1,.15192-.0533h1.77759a.07385.07385,0,0,1,.04419.0139.11658.11658,0,0,1,.03259.0479.4224.4224,0,0,1,.021.0881,1.12941,1.12941,0,0,1,.00653.1372,1.067,1.067,0,0,1-.00653.1315.32385.32385,0,0,1-.021.0865.12489.12489,0,0,1-.03259.0488.06985.06985,0,0,1-.04419.015H85.02258v.8677H86.093a.07264.07264,0,0,1,.04541.015.10952.10952,0,0,1,.03448.047.3091.3091,0,0,1,.02069.0854,1.32833,1.32833,0,0,1,0,.2619.31246.31246,0,0,1-.02069.0836.09468.09468,0,0,1-.03448.0451.07782.07782,0,0,1-.04541.0142H85.02258v1.0026h1.279a.0694.0694,0,0,1,.0451.0153.11341.11341,0,0,1,.03491.04871.33215.33215,0,0,1,.02039.0862A1.058,1.058,0,0,1,86.40881,44.7035Zm-4.72339-1.5231a1.78532,1.78532,0,0,0-.0592-.4705.99791.99791,0,0,0-.18945-.3756.88329.88329,0,0,0-.33527-.2486,1.36758,1.36758,0,0,0-.538-.0893h-.36536v2.4168h.3764a1.41449,1.41449,0,0,0,.50055-.0768.83992.83992,0,0,0,.3399-.2319,1.00661,1.00661,0,0,0,.20294-.3861A1.9209,1.9209,0,0,0,81.68542,43.1804Zm.74915-.0252a2.44147,2.44147,0,0,1-.12756.8385,1.42894,1.42894,0,0,1-.367.568,1.471,1.471,0,0,1-.58228.3229,2.85306,2.85306,0,0,1-.8161.1035h-.84955a.22476.22476,0,0,1-.15308-.0536.21916.21916,0,0,1-.06213-.1746V41.6557a.21987.21987,0,0,1,.06213-.1749.22408.22408,0,0,1,.15308-.0533h.91254a2.55037,2.55037,0,0,1,.8075.1117,1.45982,1.45982,0,0,1,.55878.3293,1.42762,1.42762,0,0,1,.34552.5409A2.15946,2.15946,0,0,1,82.43457,43.1552ZM77.4278,44.8894a.0788.0788,0,0,1-.01758.0499.13859.13859,0,0,1-.05933.0354.6654.6654,0,0,1-.10986.0219,1.81881,1.81881,0,0,1-.35126,0,.649.649,0,0,1-.11169-.0219.13909.13909,0,0,1-.05927-.0354.07715.07715,0,0,1-.01764-.0499V41.5258a.07716.07716,0,0,1,.01764-.04961.134.134,0,0,1,.06128-.0357.59265.59265,0,0,1,.11078-.0215,1.45561,1.45561,0,0,1,.17352-.0085,1.49219,1.49219,0,0,1,.17664.0085.58708.58708,0,0,1,.10986.0215.13686.13686,0,0,1,.05933.0357.07883.07883,0,0,1,.01758.04961Zm-5.32428,0a.08528.08528,0,0,1-.01514.0499.11454.11454,0,0,1-.05518.0354.6154.6154,0,0,1-.10608.0219,1.38312,1.38312,0,0,1-.16815.0085,1.36271,1.36271,0,0,1-.16638-.0085.59421.59421,0,0,1-.1051-.0219.11725.11725,0,0,1-.05438-.0354.08087.08087,0,0,1-.01678-.0499V41.9907H71.4104l-1.02808,2.8959a.13322.13322,0,0,1-.03583.0592.1689.1689,0,0,1-.06738.0374.49261.49261,0,0,1-.108.0179c-.04419.0028-.09778.004-.15961.004a1.50853,1.50853,0,0,1-.15961-.0068.47339.47339,0,0,1-.10907-.0224.234.234,0,0,1-.0675-.0366.11448.11448,0,0,1-.0329-.0527l-.99268-2.8959h-.00543v2.8987a.087.087,0,0,1-.015.0499.116.116,0,0,1-.0564.0354.68825.68825,0,0,1-.10687.0219,1.33834,1.33834,0,0,1-.16638.0085,1.35415,1.35415,0,0,1-.16614-.0085.61174.61174,0,0,1-.10626-.0219.1163.1163,0,0,1-.05524-.0354.08746.08746,0,0,1-.01508-.0499V41.7166a.29155.29155,0,0,1,.074-.2151.26874.26874,0,0,1,.19934-.074h.47339a.988.988,0,0,1,.21771.0204.43657.43657,0,0,1,.1579.0686.39593.39593,0,0,1,.10968.12669.93085.93085,0,0,1,.07709.1944l.767,2.1212h.01135l.79425-2.1163a1.12035,1.12035,0,0,1,.078-.1953.46752.46752,0,0,1,.09979-.1287.33538.33538,0,0,1,.13318-.0706.69463.69463,0,0,1,.17908-.0204h.48853a.375.375,0,0,1,.12781.0195.20385.20385,0,0,1,.0882.0564.23677.23677,0,0,1,.05237.09019.38168.38168,0,0,1,.01794.123Zm-6.791-1.68629a2.75961,2.75961,0,0,0-.04388-.51,1.09335,1.09335,0,0,0-.14941-.3934.717.717,0,0,0-.2818-.2534.96918.96918,0,0,0-.43939-.0893.89737.89737,0,0,0-.44421.1003.81563.81563,0,0,0-.28912.2687,1.10445,1.10445,0,0,0-.155.3915,2.41153,2.41153,0,0,0-.0451.4751,2.84507,2.84507,0,0,0,.04419.5241,1.13366,1.13366,0,0,0,.14832.398.68383.68383,0,0,0,.27966.2517,1.00653,1.00653,0,0,0,.4422.08649.89742.89742,0,0,0,.44452-.09949.79921.79921,0,0,0,.28912-.2696,1.128,1.128,0,0,0,.15479-.3974A2.474,2.474,0,0,0,65.3125,43.2031Zm.7605-.0369a2.6316,2.6316,0,0,1-.10968.7918,1.57974,1.57974,0,0,1-.3277.5924,1.41147,1.41147,0,0,1-.53711.3719,1.99374,1.99374,0,0,1-.74194.12759,2.18409,2.18409,0,0,1-.72388-.10889,1.25,1.25,0,0,1-.51648-.33141,1.422,1.422,0,0,1-.309-.5663,2.8534,2.8534,0,0,1-.10309-.81409,2.55768,2.55768,0,0,1,.10968-.77641,1.57391,1.57391,0,0,1,.32794-.5868,1.41711,1.41711,0,0,1,.53687-.37109,1.97956,1.97956,0,0,1,.74469-.1295,2.18627,2.18627,0,0,1,.71375.1069,1.24745,1.24745,0,0,1,.51648.3308,1.42176,1.42176,0,0,1,.31348.5615A2.70782,2.70782,0,0,1,66.073,43.1662Zm-5.93829-.6891a.5235.5235,0,0,0-.07959-.2968.4365.4365,0,0,0-.2619-.1709,1.00772,1.00772,0,0,0-.12512-.0215,1.70382,1.70382,0,0,0-.1944-.0085H59.1488v1.0085h.36908a.86228.86228,0,0,0,.26929-.0374.52683.52683,0,0,0,.1936-.1043.41556.41556,0,0,0,.11542-.1607A.54173.54173,0,0,0,60.1347,42.4771Zm.93549,2.418a.107.107,0,0,1-.01141.0507.0884.0884,0,0,1-.05157.0346.55414.55414,0,0,1-.12128.0187q-.08047.006-.21686.006-.11526,0-.184-.006a.39333.39333,0,0,1-.10913-.0204.12294.12294,0,0,1-.05615-.0385.2428.2428,0,0,1-.02722-.0565l-.32111-.7971c-.03857-.0901-.07629-.1709-.11292-.2403a.75814.75814,0,0,0-.12268-.1758.46.46,0,0,0-.157-.106.54463.54463,0,0,0-.20392-.0357h-.2262v1.3606a.07378.07378,0,0,1-.01782.0491.12882.12882,0,0,1-.05927.0362.64166.64166,0,0,1-.10974.0219,1.47582,1.47582,0,0,1-.17456.0085,1.51,1.51,0,0,1-.17462-.0085.64623.64623,0,0,1-.11108-.0219.121.121,0,0,1-.05731-.0354.08354.08354,0,0,1-.01672-.0499V41.6557a.21987.21987,0,0,1,.06213-.1749.2229.2229,0,0,1,.15192-.0533h.92206c.093,0,.171.0017.23114.0054.06.0039.1153.0085.16516.0133a1.50645,1.50645,0,0,1,.38611.1051.91975.91975,0,0,1,.292.1934.81189.81189,0,0,1,.18311.2826,1.03367,1.03367,0,0,1,.06293.3756,1.09273,1.09273,0,0,1-.04535.3248.83591.83591,0,0,1-.13409.2631.84741.84741,0,0,1-.21686.1998,1.19771,1.19771,0,0,1-.2948.1381.79951.79951,0,0,1,.15.0932.78535.78535,0,0,1,.13263.1341,1.269,1.269,0,0,1,.11737.1794,2.2278,2.2278,0,0,1,.10693.2274l.30157.703a1.61985,1.61985,0,0,1,.05438.153A.29366.29366,0,0,1,61.07019,44.8951ZM56.56848,41.724a1.11448,1.11448,0,0,1-.00659.1389.30988.30988,0,0,1-.02258.0901.14526.14526,0,0,1-.03381.049.06523.06523,0,0,1-.04388.0168H55.2951v.9578H56.389a.07085.07085,0,0,1,.04425.0142.11223.11223,0,0,1,.03485.0459.326.326,0,0,1,.02161.0882,1.29619,1.29619,0,0,1,0,.2752.364.364,0,0,1-.02161.091.13087.13087,0,0,1-.03485.0507.06543.06543,0,0,1-.04425.0151H55.2951v1.3268a.087.087,0,0,1-.01672.0528.12391.12391,0,0,1-.0592.0365.53494.53494,0,0,1-.1109.0236,1.81818,1.81818,0,0,1-.3512,0,.50572.50572,0,0,1-.11169-.0236.13763.13763,0,0,1-.0592-.0365.08132.08132,0,0,1-.01788-.0528v-3.228a.21985.21985,0,0,1,.06207-.1749.22424.22424,0,0,1,.15314-.0533h1.6781a.068.068,0,0,1,.04388.015.131.131,0,0,1,.03381.04961.32093.32093,0,0,1,.02258.09209A1.15349,1.15349,0,0,1,56.56848,41.724Z" style="fill:#575756"/></svg>